<?xml version="1.0" encoding="UTF-8" standalone="no"?><!DOCTYPE svg PUBLIC "-//W3C//DTD SVG 1.1//EN" "http://www.w3.org/Graphics/SVG/1.1/DTD/svg11.dtd"><svg width="100%" height="100%" viewBox="0 0 172 182" version="1.1" xmlns="http://www.w3.org/2000/svg" xmlns:xlink="http://www.w3.org/1999/xlink" xml:space="preserve" xmlns:serif="http://www.serif.com/" style="fill-rule:evenodd;clip-rule:evenodd;stroke-miterlimit:10;"><g><path d="M17.567,150.988c5.946,-15.98 42.315,-23.612 48.683,-28.244c8.176,-5.945 5.574,-25.642 5.574,-25.642l13.379,0.352l13.378,-0.352c0,0 -2.601,19.697 5.575,25.642c6.368,4.632 42.737,12.264 48.683,28.244c5.946,15.98 8.175,30.102 8.175,30.102l-151.623,0c0,0 2.23,-14.122 8.176,-30.102" style="fill:#ffae9e;fill-rule:nonzero;"/><path d="M101.06,119.075c-6.263,-0.64 -12.558,-1.909 -18.011,-4.959c-3.975,-2.224 -7.554,-4.848 -10.876,-7.803c0.197,-5.062 -0.349,-9.21 -0.349,-9.21l13.379,0.352l13.378,-0.352c0,-0 -1.851,14.018 2.479,21.972" style="fill:#e18980;fill-rule:nonzero;"/><path d="M16.512,150.767c4.631,-12.445 27.566,-19.861 40.704,-24.743c5.713,6.594 15.858,10.984 27.429,10.984c11.571,0 21.716,-4.389 27.429,-10.983c13.139,4.881 36.074,12.298 40.704,24.742c5.99,16.097 8.236,30.323 8.236,30.323l-152.738,0c0,0 2.246,-14.226 8.236,-30.323" style="fill:#448685;fill-rule:nonzero;"/><g><clipPath id="_clip1"><path d="M84.645,137.007c-11.571,0 -21.716,-4.389 -27.429,-10.983c-13.138,4.882 -36.073,12.297 -40.704,24.742c-5.99,16.098 -8.236,30.324 -8.236,30.324l152.738,0c0,0 -2.245,-14.226 -8.236,-30.324c-4.63,-12.443 -27.565,-19.86 -40.703,-24.742c-5.713,6.594 -15.859,10.983 -27.43,10.983Z" clip-rule="nonzero"/></clipPath><g clip-path="url(#_clip1)"><path d="M5.462,137.263l152,-0" style="fill:none;fill-rule:nonzero;stroke:#fff;stroke-width:1.06px;"/><path d="M5.462,149.263l152,-0" style="fill:none;fill-rule:nonzero;stroke:#fff;stroke-width:1.06px;"/><path d="M5.462,161.263l152,-0" style="fill:none;fill-rule:nonzero;stroke:#fff;stroke-width:1.06px;"/><path d="M5.462,173.263l160.667,-0" style="fill:none;fill-rule:nonzero;stroke:#fff;stroke-width:1.09px;"/></g></g><path d="M84.694,142.107c-14.678,0 -27.273,-5.845 -32.673,-14.178c1.843,-0.676 3.593,-1.309 5.195,-1.905c5.713,6.594 15.859,10.984 27.429,10.984c11.571,0 21.716,-4.39 27.43,-10.984c1.625,0.604 3.4,1.247 5.272,1.933c-5.41,8.319 -17.992,14.15 -32.653,14.15" style="fill:#5caaa6;fill-rule:nonzero;"/><path d="M107.668,66.398c2.161,-6.703 7.277,-5.151 7.756,-4.99c0.502,0.059 5.791,0.844 4.877,7.828c-0.919,7.025 -4.995,10.832 -8.817,9.714c-3.933,-0.624 -5.99,-5.809 -3.816,-12.552" style="fill:#e18980;fill-rule:nonzero;"/><path d="M64.409,66.398c-2.161,-6.703 -7.277,-5.151 -7.756,-4.99c-0.502,0.059 -5.791,0.844 -4.877,7.828c0.919,7.025 4.995,10.832 8.817,9.714c3.933,-0.624 5.99,-5.809 3.816,-12.552" style="fill:#e18980;fill-rule:nonzero;"/><path d="M58.948,55.852c2.678,-29.387 25.019,-27.741 27.126,-27.52c2.107,-0.221 24.448,-1.867 27.126,27.52c2.693,29.563 -10.474,48.87 -27.126,47.808c-16.652,1.062 -29.82,-18.245 -27.126,-47.808" style="fill:#ffae9e;fill-rule:nonzero;"/><path d="M85.475,65.886c0.683,1.88 1.152,3.797 1.55,5.725c0.187,0.967 0.378,1.932 0.519,2.906c0.159,0.971 0.281,1.949 0.386,2.929l0.034,0.311l-0.21,0.15c-1.39,0.997 -2.81,1.956 -4.309,2.817c1.172,-1.271 2.422,-2.443 3.703,-3.576l-0.176,0.461c-0.224,-0.96 -0.431,-1.923 -0.602,-2.892c-0.188,-0.966 -0.326,-1.941 -0.469,-2.915c-0.261,-1.952 -0.45,-3.916 -0.426,-5.916" style="fill:#e18980;fill-rule:nonzero;"/><path d="M94.765,85.103c0,-0 -0.222,0.187 -0.624,0.491c-0.202,0.151 -0.447,0.333 -0.729,0.542c-0.277,0.216 -0.592,0.452 -0.995,0.638c-0.388,0.205 -0.812,0.43 -1.271,0.652c-0.449,0.256 -0.971,0.366 -1.493,0.549c-0.529,0.158 -1.066,0.375 -1.652,0.421c-0.577,0.077 -1.163,0.179 -1.753,0.236c-0.594,-0.019 -1.187,-0.037 -1.772,-0.055l-0.435,-0.014l-0.424,-0.089c-0.28,-0.059 -0.557,-0.118 -0.829,-0.177c-0.542,-0.117 -1.071,-0.209 -1.53,-0.437c-0.471,-0.19 -0.908,-0.383 -1.308,-0.562c-0.415,-0.147 -0.733,-0.411 -1.029,-0.607c-0.292,-0.201 -0.546,-0.377 -0.755,-0.521c-0.414,-0.291 -0.638,-0.469 -0.638,-0.469c0,-0 0.279,0.095 0.746,0.281c0.231,0.093 0.511,0.207 0.833,0.338c0.323,0.121 0.667,0.3 1.085,0.386c0.409,0.106 0.849,0.221 1.306,0.357c0.45,0.166 0.961,0.186 1.471,0.269c0.515,0.05 1.035,0.205 1.581,0.171c0.541,0.006 1.092,0.011 1.642,0.016c0.547,-0.042 1.094,-0.126 1.634,-0.184c0.544,-0.034 1.061,-0.182 1.567,-0.305c0.496,-0.147 1.019,-0.185 1.452,-0.377c0.445,-0.166 0.874,-0.309 1.275,-0.443c0.807,-0.248 1.448,-0.619 1.912,-0.802c0.462,-0.202 0.733,-0.305 0.733,-0.305" style="fill:#e18980;fill-rule:nonzero;"/><path d="M99.973,66.329c0,2.213 -0.821,4.008 -1.835,4.008c-1.013,0 -1.835,-1.795 -1.835,-4.008c0,-2.213 0.822,-4.008 1.835,-4.008c1.014,0 1.835,1.795 1.835,4.008" style="fill:#352836;fill-rule:nonzero;"/><path d="M74.759,66.329c0,2.213 -0.822,4.008 -1.835,4.008c-1.013,0 -1.835,-1.795 -1.835,-4.008c0,-2.213 0.822,-4.008 1.835,-4.008c1.013,0 1.835,1.795 1.835,4.008" style="fill:#352836;fill-rule:nonzero;"/><path d="M104.478,59.771c-0,0 -0.212,-0.118 -0.584,-0.323c-0.18,-0.099 -0.399,-0.219 -0.651,-0.357c-0.246,-0.13 -0.524,-0.277 -0.827,-0.437c-0.313,-0.134 -0.626,-0.314 -0.976,-0.452c-0.34,-0.16 -0.701,-0.304 -1.073,-0.433c-0.363,-0.161 -0.759,-0.22 -1.135,-0.353c-0.391,-0.04 -0.775,-0.189 -1.166,-0.174l-0.581,-0.047c-0.191,0.023 -0.383,0.029 -0.574,0.04c-0.388,-0.017 -0.749,0.128 -1.124,0.174c-0.373,0.059 -0.708,0.24 -1.059,0.332c-0.359,0.085 -0.648,0.298 -0.96,0.417c-0.296,0.147 -0.6,0.253 -0.828,0.412c-0.235,0.148 -0.459,0.264 -0.642,0.365c-0.371,0.197 -0.605,0.303 -0.605,0.303c-0,0 0.096,-0.222 0.302,-0.599c0.105,-0.187 0.231,-0.42 0.397,-0.672c0.147,-0.272 0.38,-0.52 0.644,-0.789c0.273,-0.257 0.519,-0.611 0.905,-0.835c0.377,-0.231 0.751,-0.543 1.219,-0.717c0.47,-0.16 0.947,-0.406 1.484,-0.441c0.264,-0.036 0.532,-0.078 0.801,-0.102c0.269,0.003 0.539,0.022 0.809,0.037c0.547,0.011 1.053,0.193 1.561,0.316c0.474,0.199 0.962,0.365 1.362,0.632c0.421,0.237 0.795,0.506 1.123,0.788c0.345,0.26 0.606,0.579 0.867,0.839c0.992,1.115 1.311,2.076 1.311,2.076" style="fill:#352836;fill-rule:nonzero;"/><path d="M79.086,59.771c0,0 -0.212,-0.118 -0.584,-0.323c-0.18,-0.099 -0.399,-0.219 -0.651,-0.357c-0.246,-0.13 -0.524,-0.277 -0.827,-0.437c-0.313,-0.134 -0.626,-0.314 -0.976,-0.452c-0.34,-0.16 -0.7,-0.304 -1.073,-0.433c-0.363,-0.161 -0.759,-0.22 -1.135,-0.353c-0.391,-0.04 -0.775,-0.189 -1.166,-0.174l-0.581,-0.047c-0.191,0.023 -0.383,0.029 -0.574,0.04c-0.388,-0.017 -0.749,0.128 -1.124,0.174c-0.373,0.059 -0.708,0.24 -1.059,0.332c-0.359,0.085 -0.648,0.298 -0.96,0.417c-0.296,0.147 -0.6,0.253 -0.828,0.412c-0.235,0.148 -0.459,0.264 -0.642,0.365c-0.371,0.197 -0.605,0.303 -0.605,0.303c0,0 0.096,-0.222 0.302,-0.599c0.105,-0.187 0.231,-0.42 0.397,-0.672c0.147,-0.272 0.38,-0.52 0.644,-0.789c0.273,-0.257 0.519,-0.611 0.905,-0.835c0.377,-0.231 0.751,-0.543 1.219,-0.717c0.47,-0.16 0.947,-0.406 1.484,-0.441c0.264,-0.036 0.532,-0.078 0.801,-0.102c0.269,0.003 0.539,0.022 0.809,0.037c0.547,0.011 1.053,0.193 1.561,0.316c0.474,0.199 0.962,0.365 1.362,0.632c0.421,0.237 0.795,0.506 1.123,0.788c0.345,0.26 0.606,0.579 0.867,0.839c0.992,1.115 1.311,2.076 1.311,2.076" style="fill:#352836;fill-rule:nonzero;"/><path d="M79.212,22.297c0,0 -11,-17.768 -0.5,-20.669c10.5,-2.9 17.5,-2.538 18.75,6.165c1.25,8.702 -3.5,19.218 -3.5,19.218l-14.75,-4.714Z" style="fill:#f8d0b7;fill-rule:nonzero;"/><path d="M76.874,26.355c-0,3.682 4.577,6.667 10.223,6.667c5.647,0 10.224,-2.985 10.224,-6.667c-0,-3.682 -4.577,-6.667 -10.224,-6.667c-5.646,0 -10.223,2.985 -10.223,6.667" style="fill:#352836;fill-rule:nonzero;"/><path d="M86.666,34.413c0,-0 17.052,3.777 19.296,5.849c2.243,2.071 -1.368,13.976 6.5,19.5l-1.75,15l2.362,1.42c0,-0 7.714,-31.737 0.638,-41.92c-7.077,-10.184 -27.5,-11.75 -27.5,-11.75c0,-0 -20,-0.5 -27,12.5c-6.116,11.357 -0.68,38.581 -0.68,38.581l2.935,-0l-0.691,-16.57c0,-0 7.415,-1.381 8.285,-15.879c0.518,-8.63 17.605,-6.731 17.605,-6.731" style="fill:#ffdfc0;fill-rule:nonzero;"/><path d="M89.781,31.278c-0,-0 0.669,0.224 1.75,0.637c1.093,0.402 2.618,1.053 4.416,1.901c1.79,0.858 3.847,1.98 5.805,3.603c0.966,0.821 1.916,1.784 2.586,3.01c0.35,0.601 0.569,1.293 0.698,1.993c0.102,0.71 0.061,1.434 -0.101,2.117c-0.296,1.258 -0.599,2.475 -0.776,3.71c-0.196,1.229 -0.314,2.453 -0.295,3.637c-0.01,1.185 0.148,2.329 0.427,3.377c0.248,1.063 0.707,1.994 1.16,2.83c0.5,0.812 1.047,1.502 1.596,2.053c0.283,0.266 0.537,0.529 0.792,0.749c0.265,0.209 0.508,0.4 0.727,0.574c0.435,0.353 0.828,0.559 1.072,0.733c0.252,0.165 0.386,0.252 0.386,0.252c-0,-0 -0.136,-0.084 -0.392,-0.242c-0.248,-0.169 -0.647,-0.366 -1.091,-0.71c-0.224,-0.168 -0.473,-0.355 -0.743,-0.558c-0.261,-0.215 -0.523,-0.472 -0.814,-0.734c-0.565,-0.544 -1.133,-1.225 -1.685,-2.022c-0.5,-0.825 -1.014,-1.759 -1.318,-2.835c-0.337,-1.063 -0.547,-2.231 -0.626,-3.446c-0.1,-1.216 -0.061,-2.479 0.056,-3.75c0.098,-1.274 0.332,-2.567 0.539,-3.819c0.084,-0.575 0.063,-1.148 -0.063,-1.695c-0.154,-0.54 -0.361,-1.064 -0.692,-1.53c-0.62,-0.953 -1.546,-1.695 -2.472,-2.334c-1.894,-1.264 -3.966,-2.011 -5.726,-2.594c-1.773,-0.575 -3.311,-0.877 -4.373,-1.088c-0.531,-0.106 -0.954,-0.161 -1.236,-0.203c-0.274,-0.034 -0.421,-0.053 -0.421,-0.053l0.814,-3.563Z" style="fill:#ffdfc0;fill-rule:nonzero;"/></g></svg>