
<svg xmlns="http://www.w3.org/2000/svg" height="30px" viewBox="0 0 120 131" class="logo" data-v-bac8d298="" data-v-01f31fb8="" data-v-2ad59f72="">
<style>
path.dot[data-v-bac8d298] {
    fill: #ff22b1;
}
</style><path d="M42.2598 48.1618C49.7174 48.1618 54.0112 44.094 54.0112 37.0884C54.2372 31.2127 49.7174 26.241 43.8417 26.015C43.3898 26.015 42.9378 26.015 42.7118 26.015H25.7627V13.5856C26.2146 6.57997 20.7909 0.2523 13.5593 0.0263118C6.55366 -0.425665 0.225988 4.99805 0 12.2297C0 12.6817 0 13.3596 0 13.8116V100.139C0 120.93 8.36157 130.196 26.8926 130.196C33.8982 130.422 40.9039 128.614 47.0056 125.224C49.9434 123.416 51.7513 120.026 51.5253 116.636C51.5253 110.987 47.6835 104.885 42.4858 104.885C41.8078 104.885 40.9039 105.111 40.2259 105.337L39.322 105.789C37.5141 106.693 35.2542 107.371 33.2203 107.371C29.8305 107.371 25.9887 106.241 25.9887 96.9753V48.1618H42.2598Z" data-v-bac8d298=""/><path d="M97.4011 84.5459C84.9717 84.5459 74.8022 94.7154 74.8022 107.145C74.8022 119.574 84.9717 129.744 97.4011 129.744C109.83 129.744 120 119.574 120 107.145C120 94.7154 109.83 84.5459 97.4011 84.5459Z" class="dot" data-v-bac8d298=""/></svg>