<svg width="1274" height="698" viewBox="0 0 1274 698" fill="none" xmlns="http://www.w3.org/2000/svg">
<path d="M124.522 33.562C106.152 1.74434 65.467 -9.1572 33.6493 9.21274C1.83161 27.5827 -9.06993 68.2678 9.30001 100.085L185.697 405.614C204.067 437.432 244.752 448.333 276.57 429.963L524.487 286.828L667.622 534.745C685.992 566.563 726.677 577.465 758.495 559.095L1006.41 415.959L1149.55 663.877C1167.92 695.695 1208.6 706.596 1240.42 688.226C1272.24 669.856 1283.14 629.171 1264.77 597.354L1088.37 291.825C1070 260.007 1029.32 249.106 997.5 267.476L749.583 410.611L606.447 162.694C588.077 130.876 547.392 119.974 515.575 138.344L267.657 281.479L124.522 33.562Z" fill="#879DF2"/>
</svg>
