<svg width="224" height="150" xmlns="http://www.w3.org/2000/svg" viewBox="0 0 223.45 149.23"><defs><linearGradient id="linear-gradient_12a30e" x1="88.88" y1="149.23" x2="88.88" gradientUnits="userSpaceOnUse"><stop offset=".14" stop-color="#3dc7dc"></stop><stop offset=".38" stop-color="#42c9dd"></stop><stop offset=".66" stop-color="#50cde0"></stop><stop offset=".97" stop-color="#68d4e4"></stop><stop offset="1" stop-color="#6bd5e5"></stop></linearGradient><linearGradient id="linear-gradient-2_12a30e" x1="0" y1="95.08" x2="126.1" y2="95.08" gradientUnits="userSpaceOnUse"><stop offset="0" stop-color="#c1c7d0"></stop><stop offset=".03" stop-color="#c4c9d2"></stop><stop offset=".27" stop-color="#d9dde3"></stop><stop offset=".5" stop-color="#e7e8ed"></stop><stop offset=".71" stop-color="#ebecf0"></stop></linearGradient><linearGradient id="linear-gradient-3_12a30e" y1="95.08" x2="223.45" y2="95.08" gradientUnits="userSpaceOnUse"><stop offset=".14" stop-color="#3dc7dc"></stop><stop offset=".3" stop-color="#42c8dd"></stop><stop offset=".49" stop-color="#50cde0"></stop><stop offset=".69" stop-color="#68d4e4"></stop><stop offset=".9" stop-color="#89ddea"></stop><stop offset="1" stop-color="#9ce3ee"></stop></linearGradient></defs><g style="isolation: isolate;"><g id="Layer_2"><g id="Objects"><path id="_Path_" d="M171.1 15.84H74.36C55.28 15.84 60.62 0 41.76 0H6.65A6.65 6.65 0 000 6.65v142.58h177.75V22.49a6.65 6.65 0 00-6.65-6.65z" fill="url(#linear-gradient_12a30e)"></path><path d="M0 149.23h126.1L50.9 40.93A70.97 70.97 0 0012.72 54.8 65.39 65.39 0 000 67.42z" fill="url(#linear-gradient-2_12a30e)" style="mix-blend-mode: multiply;"></path><path id="_Path_2" d="M177.75 149.23H0L47.01 43.76a4.76 4.76 0 014.35-2.82h167.32a4.76 4.76 0 014.35 6.7z" fill="url(#linear-gradient-3_12a30e)"></path><path className="cls-5_12a30e" d="M40.179 59.088l-.812 1.822h177.75l.812-1.822H40.179zM211.778 72.886l.812-1.822H34.841l-.812 1.822h177.749z"></path></g></g></g></svg>