<svg width="50" height="50" viewBox="0 0 50 50" fill="none" xmlns="http://www.w3.org/2000/svg">
  <circle cx="25" cy="25" r="25" fill="#E1E6EE" />
  <path d="M30.2777 14.9734L33.7457 15.3588C34.6754 15.4621 35.3924 16.1994 35.2947 17.1297C35.0507 19.4554 33.9013 24.0411 28.9719 28.9705C24.0426 33.8998 19.4563 35.0499 17.1302 35.2943C16.1997 35.3921 15.4621 34.6751 15.3588 33.7452L14.9735 30.2776C14.8854 29.485 15.2767 28.7158 15.9692 28.3202L18.4533 26.9011C19.2364 26.4538 20.2219 26.5858 20.8596 27.2235L21.4969 27.8608C21.9697 28.3336 22.6511 28.5337 23.2555 28.2474C23.9715 27.9082 25.0065 27.2791 26.1428 26.1427C27.2792 25.0064 27.9083 23.9715 28.2475 23.2554C28.5338 22.6511 28.3337 21.9696 27.8608 21.4968L27.2236 20.8595C26.5859 20.2218 26.4538 19.2363 26.9012 18.4532L28.3202 15.9691C28.7158 15.2766 29.4851 14.8854 30.2777 14.9734Z" stroke="#1D1C39" stroke-width="2" stroke-linecap="round" stroke-linejoin="round" />
</svg>