<svg xmlns="http://www.w3.org/2000/svg" viewBox="0 0 224.01 152.97">
            <defs>
              <linearGradient
                id="linear-gradient_cbfe89"
                x1="56.04"
                y1="165.15"
                x2="136.34"
                y2="26.07"
                gradientUnits="userSpaceOnUse"
              >
                <stop offset="0" stop-color="#c1c7d0" stop-opacity=".1"></stop>
                <stop offset="1" stop-color="#c1c7d0"></stop>
              </linearGradient>
              <linearGradient
                id="New_Gradient_Swatch_16_cbfe89"
                x1="71.48"
                y1="101.07"
                x2="224.01"
                y2="101.07"
                gradientUnits="userSpaceOnUse"
              >
                <stop offset="0" stop-color="#2684ff"></stop>
                <stop offset="1" stop-color="#b2d4ff"></stop>
              </linearGradient>
              <linearGradient
                id="New_Gradient_Swatch_15_cbfe89"
                x1="53.64"
                y1="74.79"
                x2="230.48"
                y2="74.79"
                gradientUnits="userSpaceOnUse"
              >
                <stop offset="0" stop-color="#0065ff"></stop>
                <stop offset="1" stop-color="#4c9aff"></stop>
              </linearGradient>
              <linearGradient
                id="New_Gradient_Swatch_16-2_cbfe89"
                x1="142.54"
                y1="-345.79"
                x2="348.64"
                y2="-345.79"
                gradientTransform="matrix(.83 -.23 .27 .96 36.02 486.47)"
                href="#New_Gradient_Swatch_16_cbfe89"
              ></linearGradient>
              <linearGradient
                id="New_Gradient_Swatch_15-2_cbfe89"
                x1="53.64"
                y1="77.06"
                x2="230.48"
                y2="77.06"
                href="#New_Gradient_Swatch_15_cbfe89"
              ></linearGradient>
              <linearGradient
                id="New_Gradient_Swatch_16-3_cbfe89"
                x1="142.54"
                y1="-377.35"
                x2="348.64"
                y2="-377.35"
                gradientTransform="matrix(.83 -.23 .27 .96 36.02 486.47)"
                href="#New_Gradient_Swatch_16_cbfe89"
              ></linearGradient>
              <linearGradient
                id="linear-gradient-2_cbfe89"
                y1="27.61"
                x2="152.53"
                y2="27.61"
                gradientUnits="userSpaceOnUse"
              >
                <stop offset="0" stop-color="#42526e"></stop>
                <stop offset="1" stop-color="#5e6c84"></stop>
              </linearGradient>
              <clipPath id="clip-path">
                <rect
                  id="_Rectangle_"
                  className="cls-1_cbfe89"
                  x="187.79"
                  y="83.87"
                  width="22.76"
                  height="22.76"
                  rx="4.34"
                  ry="4.34"
                ></rect>
              </clipPath>
            </defs>
            <g style='isolation: isolate'>
              <g id="Layer_2">
                <g id="Objects">
                  <rect
                    id="_Rectangle_2"
                    width="152.53"
                    height="103.8"
                    rx="7.6"
                    ry="7.6"
                    fill="#57d9a3"
                  ></rect>
                  <path
                    d="M61.39 63.27a7.6 7.6 0 00-7.6 7.6v32.93h91.15a7.6 7.6 0 007.6-7.6V63.27z"
                    fill="url(#linear-gradient_cbfe89)"
                    style='mix-blend-mode: multiply'
                  ></path>
                  <path className="cls-5_cbfe89" d="M9.74 49.17h133.47v14.09H9.74z"></path>
                  <rect
                    id="_Rectangle_3"
                    x="71.48"
                    y="49.17"
                    width="152.53"
                    height="103.8"
                    rx="7.6"
                    ry="7.6"
                    fill="url(#New_Gradient_Swatch_16_cbfe89)"
                  ></rect>
                  <path
                    d="M224 56.78a7.6 7.6 0 00-7.6-7.6h-5.89c-3 13.44-8.2 21.54-13 26.7-17.44 18.76-43.88 14.07-70 17.85 25.45 3.21 49 12.5 70.29 1.34 8.1-4.24 18.31-12.71 26.24-31.74z"
                    fill="url(#New_Gradient_Swatch_15_cbfe89)"
                  ></path>
                  <path
                    d="M80.72 99.73a76 76 0 00-9.24 5.21v28.22a79.64 79.64 0 0114.69-20.26c12.66-12.48 26.94-17.11 41.31-19.18-14.94-1.88-30.54-1.67-46.76 6.01z"
                    fill="url(#New_Gradient_Swatch_16-2_cbfe89)"
                    style='mix-blend-mode: multiply'
                  ></path>
                  <path
                    d="M197.51 75.88c4.8-5.17 10-13.26 13-26.7H79.08a7.6 7.6 0 00-7.6 7.6v48.16a76 76 0 019.24-5.21c16.22-7.68 31.82-7.89 46.75-6 26.16-3.78 52.6.91 70.04-17.85z"
                    fill="url(#New_Gradient_Swatch_15-2_cbfe89)"
                  ></path>
                  <path
                    d="M197.51 75.88c4.8-5.17 10-13.26 13-26.7H79.08a7.6 7.6 0 00-7.6 7.6v48.16a76 76 0 019.24-5.21c16.22-7.68 31.82-7.89 46.75-6 26.16-3.78 52.6.91 70.04-17.85z"
                    fill="url(#New_Gradient_Swatch_16-3_cbfe89)"
                    style='mix-blend-mode: multiply'
                  ></path>
                  <path fill="url(#linear-gradient-2_cbfe89)" d="M0 16.22h152.53V39H0z"></path>
                  <circle className="cls-5_cbfe89" cx="19.72" cy="84.98" r="9.98"></circle>
                  <rect
                    id="_Rectangle_4"
                    className="cls-1_cbfe89"
                    x="187.79"
                    y="83.87"
                    width="22.76"
                    height="22.76"
                    rx="4.34"
                    ry="4.34"
                  ></rect>
                  <g clip-path="url(#clip-path_cbfe89)">
                    <rect
                      x="191.05"
                      y="87.13"
                      width="16.24"
                      height="16.24"
                      rx="2.17"
                      ry="2.17"
                      transform="rotate(90 199.17 95.25)"
                      fill="#b2d4ff"
                    ></rect>
                  </g>
                  <path
                    className="cls-14_cbfe89"
                    d="M82.45 133.68h60.95M186.7 133.68h23.78M82.45 141.23h60.95"
                  ></path>
                  <path
                    fill="#4c9aff"
                    d="M92.88 69.73l5.38 5.39-5.38 5.38-10.77-10.77 10.77-10.77 5.38 5.39-5.38 5.38z"
                  ></path>
                  <path
                    transform="rotate(-45 98.266 69.737)"
                    fill="#0052cc"
                    d="M94.45 65.93h7.62v7.62h-7.62z"
                  ></path>
                  <path
                    className="cls-5_cbfe89"
                    d="M114.42 69.73L103.65 80.5l-5.39-5.38 5.39-5.39-5.39-5.38 5.39-5.39 10.77 10.77z"
                  ></path>
                  <rect
                    className="cls-17_cbfe89"
                    x="82.93"
                    y="117.23"
                    width="3.75"
                    height="5.85"
                    rx="1.15"
                    ry="1.15"
                  ></rect>
                  <rect
                    className="cls-17_cbfe89"
                    x="90.15"
                    y="117.23"
                    width="3.75"
                    height="5.85"
                    rx="1.15"
                    ry="1.15"
                  ></rect>
                  <rect
                    className="cls-17_cbfe89"
                    x="97.37"
                    y="117.23"
                    width="3.75"
                    height="5.85"
                    rx="1.15"
                    ry="1.15"
                  ></rect>
                  <rect
                    className="cls-17_cbfe89"
                    x="104.59"
                    y="117.23"
                    width="3.75"
                    height="5.85"
                    rx="1.15"
                    ry="1.15"
                  ></rect>
                  <rect
                    className="cls-17_cbfe89"
                    x="116.97"
                    y="117.23"
                    width="3.75"
                    height="5.85"
                    rx="1.15"
                    ry="1.15"
                  ></rect>
                  <rect
                    className="cls-17_cbfe89"
                    x="124.19"
                    y="117.23"
                    width="3.75"
                    height="5.85"
                    rx="1.15"
                    ry="1.15"
                  ></rect>
                  <rect
                    className="cls-17_cbfe89"
                    x="131.41"
                    y="117.23"
                    width="3.75"
                    height="5.85"
                    rx="1.15"
                    ry="1.15"
                  ></rect>
                  <rect
                    className="cls-17_cbfe89"
                    x="138.63"
                    y="117.23"
                    width="3.75"
                    height="5.85"
                    rx="1.15"
                    ry="1.15"
                  ></rect>
                  <rect
                    className="cls-17_cbfe89"
                    x="151.01"
                    y="117.23"
                    width="3.75"
                    height="5.85"
                    rx="1.15"
                    ry="1.15"
                  ></rect>
                  <rect
                    className="cls-17_cbfe89"
                    x="158.24"
                    y="117.23"
                    width="3.75"
                    height="5.85"
                    rx="1.15"
                    ry="1.15"
                  ></rect>
                  <rect
                    className="cls-17_cbfe89"
                    x="165.46"
                    y="117.23"
                    width="3.75"
                    height="5.85"
                    rx="1.15"
                    ry="1.15"
                  ></rect>
                  <rect
                    className="cls-17_cbfe89"
                    x="172.68"
                    y="117.23"
                    width="3.75"
                    height="5.85"
                    rx="1.15"
                    ry="1.15"
                  ></rect>
                  <rect
                    className="cls-17_cbfe89"
                    x="185.06"
                    y="117.23"
                    width="3.75"
                    height="5.85"
                    rx="1.15"
                    ry="1.15"
                  ></rect>
                  <rect
                    className="cls-17_cbfe89"
                    x="192.28"
                    y="117.23"
                    width="3.75"
                    height="5.85"
                    rx="1.15"
                    ry="1.15"
                  ></rect>
                  <rect
                    className="cls-17_cbfe89"
                    x="199.5"
                    y="117.23"
                    width="3.75"
                    height="5.85"
                    rx="1.15"
                    ry="1.15"
                  ></rect>
                  <rect
                    className="cls-17_cbfe89"
                    x="206.72"
                    y="117.23"
                    width="3.75"
                    height="5.85"
                    rx="1.15"
                    ry="1.15"
                  ></rect>
                </g>
              </g>
            </g>
          </svg>