<svg width="687" height="428" viewBox="0 0 687 428" fill="none" xmlns="http://www.w3.org/2000/svg">
<path d="M202.158 196.57C200.906 195.081 200.906 192.908 202.158 191.42L218.431 172.077C220.833 169.221 225.492 170.92 225.492 174.652V213.337C225.492 217.069 220.833 218.768 218.431 215.912L202.158 196.57Z" fill="#FF22B1"/>
<path d="M238.158 198.57C236.906 197.081 236.906 194.908 238.158 193.42L254.431 174.077C256.833 171.221 261.492 172.92 261.492 176.652V215.337C261.492 219.069 256.833 220.768 254.431 217.912L238.158 198.57Z" fill="#E1E6EE"/>
<g filter="url(#filter0_ddd)">
<rect x="24" y="119" width="150" height="150" rx="12" fill="white"/>
</g>
<path d="M102.169 183.301C105.693 183.301 107.71 181.381 107.71 178.032C107.71 174.883 105.535 172.768 102.305 172.768H94.3391V166.852C94.3391 162.589 91.2777 160.327 88.2544 160.327C85.2311 160.327 82.1643 162.562 82.1643 166.852V207.634C82.1643 217.422 86.0685 221.815 94.8339 221.815C99.5809 221.815 102.294 220.592 104.312 219.406C105.856 218.547 106.405 216.731 106.405 215.312C106.405 212.691 104.654 209.765 102.137 209.765C101.766 209.767 101.398 209.831 101.049 209.956C100.913 210.005 100.766 210.075 100.603 210.152C99.706 210.613 98.7137 210.859 97.7049 210.869C96.1389 210.869 94.3336 210.326 94.3336 205.975V183.301H102.169Z" fill="#1D1C39"/>
<path d="M128.3 200.489C126.187 200.487 124.121 201.113 122.363 202.287C120.605 203.46 119.235 205.128 118.425 207.081C117.615 209.033 117.403 211.182 117.815 213.255C118.226 215.328 119.244 217.232 120.738 218.727C122.232 220.222 124.136 221.24 126.208 221.653C128.281 222.065 130.43 221.854 132.383 221.045C134.335 220.237 136.004 218.867 137.179 217.11C138.353 215.353 138.98 213.287 138.98 211.173C138.977 208.341 137.851 205.626 135.849 203.623C133.847 201.62 131.132 200.493 128.3 200.489Z" fill="#FF22B1"/>
<g filter="url(#filter1_ddd)">
<rect x="290" y="34" width="165" height="98" rx="12" fill="white"/>
</g>
<g clip-path="url(#clip0)">
<path fill-rule="evenodd" clip-rule="evenodd" d="M418.025 89.1953C418.085 89.8847 418.636 90.7621 419.592 90.7621H420.151C420.367 90.7621 420.545 90.5845 420.545 90.3677V78.0749H420.543C420.531 77.8678 420.36 77.7019 420.151 77.7019H418.419C418.209 77.7019 418.038 77.8678 418.027 78.0749H418.025V79.0737C416.963 77.7657 415.29 77.2228 413.613 77.2228C409.799 77.2228 406.708 80.3166 406.708 84.1333C406.708 87.9502 409.799 91.0441 413.613 91.0441V91.0445C415.29 91.0445 417.119 90.3931 418.024 89.1937L418.025 89.1953ZM413.619 88.6255C411.194 88.6255 409.228 86.6145 409.228 84.1333C409.228 81.6526 411.194 79.6414 413.619 79.6414C416.045 79.6414 418.011 81.6526 418.011 84.1333C418.011 86.6145 416.045 88.6255 413.619 88.6255Z" fill="#0D0E10"/>
<path fill-rule="evenodd" clip-rule="evenodd" d="M404.518 89.6181L404.517 83.2571H404.517C404.517 79.6714 402.257 77.2525 398.652 77.2525C396.932 77.2525 395.521 78.2482 395.023 79.1035C394.915 78.4347 394.561 77.7317 393.46 77.7317H392.9C392.683 77.7317 392.505 77.9094 392.505 78.1263V89.2261C392.505 89.2264 392.505 89.2273 392.505 89.2278V90.4201H392.508C392.519 90.6269 392.69 90.793 392.9 90.793H394.632C394.658 90.793 394.684 90.7898 394.709 90.7849C394.721 90.7827 394.732 90.7782 394.743 90.775C394.756 90.7711 394.769 90.768 394.781 90.763C394.797 90.7566 394.811 90.748 394.825 90.74C394.832 90.7357 394.839 90.7327 394.846 90.7281C394.863 90.717 394.879 90.7036 394.895 90.6899C394.897 90.6873 394.9 90.6857 394.903 90.6834C394.92 90.6667 394.935 90.6483 394.949 90.6292C394.95 90.6289 394.95 90.6289 394.95 90.6289C394.993 90.5693 395.019 90.4976 395.024 90.4201H395.026V83.1585C395.026 81.2327 396.586 79.6714 398.51 79.6714C400.435 79.6714 401.995 81.2327 401.995 83.1585L401.996 89.2282L401.997 89.2261C401.997 89.2315 401.998 89.237 401.998 89.2428V90.4201H402C402.011 90.6269 402.182 90.793 402.392 90.793H404.124C404.151 90.793 404.176 90.7898 404.202 90.7849C404.212 90.783 404.221 90.7789 404.231 90.7761C404.245 90.772 404.26 90.7684 404.274 90.763C404.288 90.7571 404.301 90.7489 404.314 90.7414C404.322 90.7368 404.331 90.7334 404.339 90.7281C404.355 90.7177 404.369 90.705 404.384 90.6924C404.387 90.689 404.391 90.6865 404.395 90.683C404.411 90.6672 404.426 90.6501 404.439 90.6322C404.44 90.6308 404.441 90.6297 404.442 90.6284C404.485 90.5693 404.511 90.4981 404.516 90.4212C404.516 90.4207 404.516 90.4201 404.516 90.4201H404.518V89.6183L404.518 89.6181Z" fill="#0D0E10"/>
<path fill-rule="evenodd" clip-rule="evenodd" d="M386.48 89.1953C386.541 89.8847 387.092 90.7621 388.047 90.7621H388.606C388.823 90.7621 389 90.5845 389 90.3677V78.0749H388.998C388.987 77.8678 388.815 77.7019 388.606 77.7019H386.874C386.665 77.7019 386.494 77.8678 386.482 78.0749H386.48V79.0737C385.419 77.7657 383.746 77.2228 382.068 77.2228C378.254 77.2228 375.163 80.3166 375.163 84.1333C375.163 87.9502 378.254 91.0441 382.068 91.0441V91.0445C383.746 91.0445 385.574 90.3931 386.48 89.1937L386.48 89.1953ZM382.075 88.6255C379.649 88.6255 377.683 86.6145 377.683 84.1333C377.683 81.6526 379.649 79.6414 382.075 79.6414C384.5 79.6414 386.466 81.6526 386.466 84.1333C386.466 86.6145 384.5 88.6255 382.075 88.6255Z" fill="#0D0E10"/>
<path fill-rule="evenodd" clip-rule="evenodd" d="M364.921 87.4346C366.077 88.2362 367.339 88.6255 368.552 88.6255C369.707 88.6255 370.901 88.0261 370.901 86.9827C370.901 85.5897 368.299 85.373 366.663 84.8167C365.028 84.2605 363.619 83.1107 363.619 81.2486C363.619 78.3993 366.156 77.2225 368.523 77.2225C370.024 77.2225 371.572 77.7176 372.575 78.4268C372.921 78.6889 372.71 78.9898 372.71 78.9898L371.752 80.359C371.645 80.5132 371.456 80.6464 371.186 80.4795C370.916 80.3127 369.968 79.6413 368.523 79.6413C367.079 79.6413 366.209 80.3089 366.209 81.1365C366.209 82.1288 367.34 82.4409 368.664 82.7792C370.973 83.4019 373.491 84.1504 373.491 86.9827C373.491 89.4932 371.145 91.0446 368.552 91.0446C366.586 91.0446 364.913 90.4839 363.51 89.4534C363.218 89.1606 363.422 88.8888 363.422 88.8888L364.375 87.5265C364.569 87.2718 364.814 87.3606 364.921 87.4346Z" fill="#0D0E10"/>
<path fill-rule="evenodd" clip-rule="evenodd" d="M358.262 89.1953C358.323 89.8847 358.874 90.7621 359.83 90.7621H360.389C360.605 90.7621 360.783 90.5845 360.783 90.3677V78.0749H360.78C360.769 77.8678 360.598 77.7019 360.389 77.7019H358.657C358.447 77.7019 358.276 77.8678 358.264 78.0749H358.262V79.0737C357.201 77.7657 355.528 77.2228 353.85 77.2228C350.037 77.2228 346.945 80.3166 346.945 84.1333C346.945 87.9502 350.037 91.0441 353.85 91.0441V91.0445C355.528 91.0445 357.357 90.3931 358.262 89.1937L358.262 89.1953ZM353.857 88.6255C351.432 88.6255 349.466 86.6145 349.466 84.1333C349.466 81.6526 351.432 79.6414 353.857 79.6414C356.283 79.6414 358.249 81.6526 358.249 84.1333C358.249 86.6145 356.283 88.6255 353.857 88.6255Z" fill="#0D0E10"/>
<path fill-rule="evenodd" clip-rule="evenodd" d="M337.265 84.6034C334.698 84.6034 332.618 86.6839 332.618 89.2504C332.618 91.8168 334.698 93.8973 337.265 93.8973C339.831 93.8973 341.911 91.8168 341.911 89.2504C341.911 86.6839 339.831 84.6034 337.265 84.6034ZM325.192 84.6038C322.625 84.6038 320.545 86.6839 320.545 89.2504C320.545 91.8168 322.625 93.8973 325.192 93.8973C327.758 93.8973 329.839 91.8168 329.839 89.2504C329.839 86.6839 327.758 84.6038 325.192 84.6038ZM335.875 78.7947C335.875 81.3612 333.795 83.4419 331.228 83.4419C328.662 83.4419 326.581 81.3612 326.581 78.7947C326.581 76.2286 328.662 74.1479 331.228 74.1479C333.795 74.1479 335.875 76.2286 335.875 78.7947Z" fill="#F06A6A"/>
</g>
<g filter="url(#filter2_d)">
<rect x="470" y="34" width="165" height="98" rx="12" fill="white"/>
</g>
<path d="M562.401 91.9045V86.5232C562.401 83.2826 565.249 83.3415 566.761 83.5772V79.9045C564.385 79.6885 562.951 80.3562 562.323 81.6525H562.244L562.264 79.9634H558.945V91.8848H562.401V91.9045Z" fill="black"/>
<path d="M576.817 91.9028H578.978L582.533 87.4053L585.537 91.9028H589.544L584.811 84.9896L588.955 79.9618H584.968L580.235 85.9716H580.156L580.195 74.0109H576.817V91.9028Z" fill="black"/>
<path d="M537.949 91.9045H540.62L544.705 84.2254L548.652 91.9045H551.363L557.432 79.9635H553.405L549.674 87.5838L546.139 79.9635H543.232L539.5 87.623L535.965 79.9635H531.939L537.949 91.9045Z" fill="black"/>
<path d="M571.356 78.2531C572.534 78.2531 573.477 77.2908 573.477 76.132C573.477 74.9733 572.534 74.0109 571.356 74.0109C570.177 74.0109 569.235 74.9536 569.235 76.132C569.235 77.3104 570.177 78.2531 571.356 78.2531Z" fill="black"/>
<path d="M573.045 79.9635H569.647V91.9045H573.045V79.9635Z" fill="black"/>
<path d="M599.206 87.9351C598.794 88.5635 597.93 89.3491 596.457 89.3491C594.748 89.3491 593.55 88.3671 593.275 86.9334H602.545C602.545 86.6781 602.545 86.3246 602.545 85.9907C602.545 82.5341 600.071 79.7649 596.398 79.7649C592.804 79.7649 590.015 82.4948 590.015 85.9907C590.015 89.467 592.745 92.2165 596.398 92.2165C599.128 92.2165 600.778 91.1363 601.818 89.7419L599.206 87.9351ZM596.201 82.4359C597.773 82.4359 598.872 83.3001 599.246 84.557H593.138C593.53 83.3001 594.591 82.4359 596.201 82.4359Z" fill="black"/>
<path d="M502.5 80.9847C504.15 80.9847 504.916 81.2793 506.114 82.4773L512.517 88.8995C512.713 89.0959 512.753 89.1745 512.772 89.2727C512.792 89.312 512.792 89.3709 512.792 89.4102C512.792 89.4494 512.792 89.5084 512.772 89.5476C512.733 89.6655 512.694 89.744 512.517 89.9208L508.157 94.3201C507.96 94.5165 507.901 94.5558 507.784 94.5951C507.744 94.6147 507.685 94.6147 507.646 94.6147C507.607 94.6147 507.548 94.6147 507.509 94.5951C507.391 94.5558 507.312 94.5165 507.136 94.3201L494.743 81.8881C494.389 81.5346 494.507 80.9847 495.116 80.9847H502.5Z" fill="#48B862"/>
<path d="M520.547 73.1479C518.897 73.1479 518.131 73.4425 516.933 74.6406L510.531 81.0628C510.334 81.2592 510.295 81.3378 510.275 81.436C510.256 81.4753 510.256 81.5342 510.256 81.5734C510.256 81.6127 510.256 81.6716 510.275 81.7109C510.315 81.8288 510.354 81.9073 510.531 82.0841L514.891 86.4638C515.087 86.6602 515.146 86.6995 515.264 86.7387C515.303 86.7584 515.362 86.7584 515.402 86.7584C515.441 86.7584 515.5 86.7584 515.539 86.7387C515.657 86.6995 515.735 86.6602 515.912 86.4638L528.305 74.0317C528.658 73.6782 528.541 73.1479 527.932 73.1479H520.547Z" fill="#48B862"/>
<g filter="url(#filter3_d)">
<rect x="470" y="147" width="165" height="98" rx="12" fill="white"/>
</g>
<g clip-path="url(#clip1)">
<path fill-rule="evenodd" clip-rule="evenodd" d="M499.294 198.812L503.037 195.946C505.024 198.54 507.135 199.736 509.487 199.736C511.826 199.736 513.878 198.554 515.777 195.98L519.571 198.778C516.834 202.49 513.428 204.451 509.487 204.451C505.558 204.451 502.121 202.503 499.294 198.812Z" fill="url(#paint0_linear)"/>
<path fill-rule="evenodd" clip-rule="evenodd" d="M509.475 186.353L502.813 192.093L499.736 188.521L509.488 180.118L519.164 188.528L516.072 192.086L509.475 186.353Z" fill="url(#paint1_linear)"/>
<path d="M545.12 184.964H541.348V200.679H545.12V184.964Z" fill="black"/>
<path fill-rule="evenodd" clip-rule="evenodd" d="M533.726 200.748C531.502 200.748 529.65 200.028 528.147 198.587C526.644 197.125 525.903 195.252 525.903 192.967C525.903 190.661 526.665 188.767 528.167 187.285C529.691 185.782 531.544 185.041 533.746 185.041C536.464 185.041 538.872 186.214 540.272 188.047L537.822 190.62C536.649 189.364 535.373 188.726 533.993 188.726C532.82 188.726 531.852 189.117 531.05 189.92C530.267 190.723 529.876 191.732 529.876 192.946C529.876 194.12 530.267 195.108 531.05 195.911C531.852 196.693 532.82 197.084 533.973 197.084C535.476 197.084 536.793 196.425 537.884 195.128L540.437 197.578C539.737 198.504 538.79 199.266 537.617 199.863C536.443 200.46 535.146 200.748 533.726 200.748Z" fill="black"/>
<path fill-rule="evenodd" clip-rule="evenodd" d="M550.777 186.221C550.777 187.35 549.862 188.264 548.734 188.264C547.606 188.264 546.691 187.35 546.691 186.221C546.691 185.093 547.606 184.178 548.734 184.178C549.862 184.178 550.777 185.093 550.777 186.221ZM550.62 189.207H546.848V200.679H550.62V189.207Z" fill="black"/>
<path fill-rule="evenodd" clip-rule="evenodd" d="M557.91 200.769C556.119 200.769 554.678 200.213 553.546 199.101C552.434 197.99 551.878 196.569 551.878 194.819C551.878 193.07 552.434 191.649 553.566 190.537C554.699 189.426 556.16 188.87 557.972 188.87C560.339 188.87 562.418 190.023 563.386 192.184L560.483 193.708C559.907 192.74 559.104 192.246 558.054 192.246C557.292 192.246 556.675 192.493 556.181 192.987C555.707 193.481 555.46 194.099 555.46 194.819C555.46 196.322 556.551 197.434 558.013 197.434C559.063 197.434 560.03 196.857 560.442 195.972L563.345 197.701C562.356 199.595 560.319 200.769 557.91 200.769Z" fill="black"/>
<path fill-rule="evenodd" clip-rule="evenodd" d="M568.064 184.964H564.293V200.679H568.064V196.678L568.506 196.266L571.954 200.679H576.341L571.044 193.899L576.076 189.207H571.467L568.064 192.381V184.964Z" fill="black"/>
<path fill-rule="evenodd" clip-rule="evenodd" d="M577.021 194.741V184.964H580.949V194.522C580.949 196.23 581.945 197.054 583.385 197.054C584.804 197.054 585.821 196.189 585.821 194.522V184.964H589.749V194.741C589.749 199.228 586.599 200.917 583.385 200.917C580.192 200.917 577.021 199.228 577.021 194.741Z" fill="black"/>
<path fill-rule="evenodd" clip-rule="evenodd" d="M598.235 200.993C601.273 200.993 603.735 198.32 603.735 195.022C603.735 191.724 601.273 189.05 598.235 189.05C596.997 189.05 595.854 189.494 594.935 190.244V189.207H591.321V205.393H594.935V199.799C595.854 200.549 596.997 200.993 598.235 200.993ZM594.935 195.028V195.015C594.938 193.543 596.098 192.35 597.528 192.35C598.96 192.35 600.121 193.546 600.121 195.022C600.121 196.497 598.96 197.693 597.528 197.693C596.098 197.693 594.938 196.5 594.935 195.028Z" fill="black"/>
</g>
<g filter="url(#filter4_d)">
<rect x="290" y="147" width="165" height="98" rx="12" fill="white"/>
</g>
<path d="M346.508 187.043H351.689C354.558 187.043 356.048 188.219 356.048 190.429V190.539C356.089 191.186 355.896 191.827 355.505 192.344C355.113 192.861 354.549 193.221 353.915 193.357C354.674 193.424 355.377 193.788 355.87 194.37C356.363 194.951 356.606 195.704 356.547 196.464V196.54C356.547 198.953 354.965 200.222 351.926 200.222H346.508V187.043ZM351.206 192.452C352.645 192.452 353.212 191.935 353.212 190.759V190.683C353.212 189.582 352.586 189.083 351.189 189.083H349.42V192.469L351.206 192.452ZM351.46 198.148C352.933 198.148 353.602 197.48 353.602 196.286V196.21C353.602 194.991 352.933 194.373 351.316 194.373H349.42V198.157L351.46 198.148Z" fill="#1D2D35"/>
<path d="M357.327 197.54C357.327 195.289 359.384 194.442 362.338 194.442H363.422V194.061C363.422 192.918 363.075 192.292 361.856 192.292C361.658 192.269 361.458 192.286 361.268 192.343C361.078 192.399 360.901 192.495 360.749 192.622C360.596 192.75 360.472 192.907 360.383 193.085C360.294 193.263 360.242 193.456 360.231 193.655H357.691C357.86 191.369 359.663 190.354 362.025 190.354C364.387 190.354 366.054 191.31 366.054 193.926V200.206H363.456V199.047C363.129 199.506 362.69 199.873 362.179 200.112C361.669 200.351 361.105 200.454 360.544 200.41C358.8 200.41 357.327 199.563 357.327 197.54ZM363.422 196.838V195.991H362.389C360.84 195.991 359.943 196.33 359.943 197.354C359.943 198.056 360.366 198.522 361.339 198.522C362.516 198.556 363.422 197.904 363.422 196.838Z" fill="#1D2D35"/>
<path d="M367.178 197.185H369.667C369.777 198.031 370.2 198.556 371.36 198.556C372.392 198.556 372.875 198.166 372.875 197.498C372.875 196.829 372.299 196.558 370.919 196.364C368.38 195.974 367.364 195.238 367.364 193.359C367.364 191.479 369.209 190.354 371.173 190.354C373.315 190.354 374.915 191.132 375.152 193.342H372.705C372.561 192.546 372.113 192.182 371.199 192.182C370.285 192.182 369.836 192.588 369.836 193.172C369.836 193.756 370.293 194.019 371.69 194.222C374.102 194.569 375.431 195.178 375.431 197.244C375.431 199.309 373.924 200.41 371.376 200.41C368.829 200.41 367.271 199.267 367.178 197.185Z" fill="#1D2D35"/>
<path d="M376.117 195.509V195.365C376.085 194.703 376.19 194.042 376.427 193.424C376.664 192.805 377.026 192.243 377.492 191.772C377.957 191.301 378.516 190.931 379.131 190.687C379.747 190.443 380.407 190.33 381.069 190.354C383.557 190.354 385.766 191.81 385.766 195.255V195.991H378.851C378.918 197.591 379.79 198.531 381.238 198.531C382.474 198.531 383.083 197.997 383.252 197.185H385.792C385.479 199.267 383.82 200.427 381.187 200.427C378.233 200.41 376.117 198.59 376.117 195.509ZM383.168 194.349C383.083 192.893 382.338 192.233 381.069 192.233C380.497 192.23 379.946 192.449 379.533 192.844C379.119 193.239 378.875 193.778 378.851 194.349H383.168Z" fill="#1D2D35"/>
<path d="M386.47 195.509V195.365C386.438 194.702 386.544 194.04 386.782 193.42C387.019 192.8 387.383 192.237 387.851 191.765C388.318 191.294 388.879 190.925 389.496 190.682C390.114 190.439 390.776 190.327 391.439 190.354C393.673 190.354 395.73 191.327 395.976 194.095H393.436C393.42 193.858 393.355 193.626 393.247 193.414C393.139 193.202 392.989 193.013 392.806 192.86C392.624 192.707 392.413 192.592 392.185 192.522C391.957 192.452 391.718 192.429 391.481 192.453C390.101 192.453 389.179 193.486 389.179 195.331V195.475C389.179 197.414 390.025 198.404 391.54 198.404C391.798 198.419 392.056 198.382 392.3 198.296C392.543 198.21 392.767 198.077 392.959 197.904C393.15 197.73 393.305 197.521 393.415 197.287C393.524 197.053 393.586 196.8 393.597 196.542H396.01C395.866 198.827 394.207 200.41 391.405 200.41C388.603 200.41 386.47 198.658 386.47 195.509Z" fill="#1D2D35"/>
<path d="M396.628 197.54C396.628 195.289 398.685 194.442 401.631 194.442H402.723V194.061C402.723 192.918 402.367 192.292 401.157 192.292C400.958 192.266 400.756 192.281 400.564 192.337C400.372 192.393 400.193 192.487 400.039 192.615C399.884 192.743 399.758 192.902 399.668 193.08C399.578 193.259 399.526 193.455 399.515 193.655H396.975C397.145 191.369 398.948 190.354 401.301 190.354C403.654 190.354 405.338 191.31 405.338 193.926V200.206H402.74V199.047C402.414 199.506 401.974 199.873 401.464 200.112C400.953 200.351 400.39 200.454 399.828 200.41C398.135 200.41 396.628 199.563 396.628 197.54ZM402.723 196.838V195.991H401.707C400.158 195.991 399.252 196.33 399.252 197.354C399.252 198.056 399.684 198.522 400.657 198.522C401.851 198.556 402.757 197.904 402.757 196.838H402.723Z" fill="#1D2D35"/>
<path d="M407.217 190.539H409.884V192.012C410.174 191.489 410.602 191.054 411.121 190.756C411.64 190.458 412.231 190.307 412.829 190.319C413.401 190.273 413.971 190.413 414.456 190.718C414.941 191.023 415.315 191.477 415.521 192.012C415.877 191.481 416.36 191.048 416.926 190.752C417.493 190.456 418.124 190.307 418.763 190.319C420.549 190.319 421.929 191.445 421.929 194.001V200.172H419.279V194.331C419.279 193.095 418.729 192.545 417.764 192.545C417.508 192.534 417.251 192.578 417.013 192.675C416.775 192.772 416.561 192.919 416.385 193.106C416.209 193.293 416.076 193.516 415.994 193.76C415.912 194.003 415.883 194.262 415.91 194.517V200.206H413.253V194.331C413.253 193.095 412.685 192.545 411.746 192.545C411.488 192.533 411.231 192.576 410.992 192.672C410.753 192.769 410.538 192.916 410.361 193.103C410.184 193.29 410.05 193.514 409.967 193.758C409.885 194.002 409.856 194.261 409.884 194.517V200.206H407.217V190.539Z" fill="#1D2D35"/>
<path d="M423.755 190.54H426.43V192.055C426.749 191.525 427.2 191.087 427.738 190.782C428.277 190.478 428.885 190.319 429.503 190.32C431.865 190.32 433.735 192.072 433.735 195.255V195.407C433.735 198.59 431.932 200.376 429.503 200.376C428.885 200.401 428.272 200.257 427.73 199.958C427.189 199.66 426.739 199.219 426.43 198.683V203.491H423.755V190.54ZM430.993 195.424V195.28C430.993 193.325 430.036 192.368 428.69 192.368C427.345 192.368 426.337 193.342 426.337 195.28V195.424C426.337 197.354 427.26 198.293 428.716 198.293C430.172 198.293 430.993 197.311 430.993 195.458V195.424Z" fill="#1D2D35"/>
<path d="M310.127 193.977C309.814 194.865 310.28 195.839 311.168 196.152C312.056 196.465 313.03 195.999 313.343 195.111L310.127 193.977ZM340.016 199.851L341.493 200.702C341.662 200.408 341.74 200.071 341.717 199.732L340.016 199.851ZM326.718 205.209V203.504C326.708 203.504 326.699 203.504 326.69 203.505L326.718 205.209ZM314.52 199.851L312.921 199.259C312.703 199.85 312.827 200.513 313.246 200.984L314.52 199.851ZM319.692 192.614V190.909L319.681 190.909L319.692 192.614ZM330.598 190.223C330.997 189.37 330.63 188.355 329.778 187.955C328.925 187.556 327.91 187.923 327.51 188.775L330.598 190.223ZM313.343 195.111C315.534 188.901 319.393 182.705 326.718 182.705V179.295C316.96 179.295 312.356 187.659 310.127 193.977L313.343 195.111ZM326.718 182.705C330.123 182.705 332.854 184.921 334.896 188.427C336.931 191.921 338.063 196.369 338.315 199.97L341.717 199.732C341.435 195.715 340.189 190.738 337.843 186.711C335.504 182.696 331.853 179.295 326.718 179.295V182.705ZM338.538 199C337.676 200.497 336.157 201.626 334.07 202.389C331.98 203.153 329.428 203.504 326.718 203.504V206.914C329.687 206.914 332.663 206.534 335.241 205.592C337.822 204.649 340.112 203.099 341.493 200.702L338.538 199ZM326.69 203.505C324.636 203.538 322.6 203.128 320.719 202.302L319.348 205.424C321.678 206.447 324.201 206.956 326.746 206.914L326.69 203.505ZM320.719 202.302C318.839 201.476 317.159 200.253 315.794 198.718L313.246 200.984C314.937 202.886 317.018 204.4 319.348 205.424L320.719 202.302ZM314.52 199.851C316.119 200.444 316.119 200.444 316.119 200.444C316.119 200.444 316.119 200.444 316.119 200.444C316.119 200.444 316.119 200.444 316.119 200.444C316.119 200.444 316.119 200.443 316.12 200.442C316.12 200.44 316.122 200.436 316.124 200.431C316.128 200.42 316.135 200.402 316.144 200.378C316.162 200.331 316.189 200.26 316.226 200.167C316.299 199.983 316.407 199.715 316.545 199.394C316.822 198.746 317.211 197.894 317.668 197.052C318.133 196.195 318.63 195.421 319.107 194.883C319.657 194.261 319.858 194.318 319.704 194.319L319.681 190.909C318.277 190.919 317.208 191.884 316.554 192.621C315.827 193.442 315.187 194.475 314.671 195.426C314.147 196.391 313.712 197.345 313.41 198.052C313.258 198.407 313.137 198.704 313.054 198.914C313.013 199.02 312.98 199.103 312.958 199.162C312.947 199.191 312.938 199.214 312.932 199.23C312.929 199.239 312.927 199.245 312.925 199.25C312.924 199.252 312.923 199.254 312.923 199.256C312.922 199.256 312.922 199.257 312.922 199.258C312.922 199.258 312.922 199.258 312.922 199.258C312.921 199.259 312.921 199.259 314.52 199.851ZM319.692 194.319C319.622 194.319 319.704 194.29 320.001 194.511C320.292 194.728 320.61 195.047 321.018 195.478C321.379 195.86 321.854 196.38 322.332 196.779C322.775 197.149 323.545 197.705 324.542 197.705V194.295C324.807 194.295 324.835 194.427 324.518 194.162C324.236 193.927 323.935 193.6 323.496 193.136C323.104 192.721 322.598 192.193 322.037 191.775C321.481 191.361 320.68 190.909 319.692 190.909V194.319ZM324.542 197.705C325.313 197.705 325.903 197.305 326.218 197.055C326.58 196.767 326.909 196.406 327.192 196.055C327.765 195.345 328.334 194.445 328.821 193.606C329.316 192.756 329.759 191.912 330.076 191.285C330.235 190.97 330.365 190.707 330.454 190.522C330.499 190.429 330.534 190.356 330.559 190.305C330.571 190.28 330.58 190.26 330.587 190.246C330.59 190.239 330.593 190.233 330.595 190.23C330.595 190.228 330.596 190.226 330.597 190.225C330.597 190.224 330.597 190.224 330.597 190.223C330.597 190.223 330.598 190.223 330.598 190.223C330.598 190.223 330.598 190.223 329.054 189.499C327.51 188.775 327.51 188.775 327.51 188.775C327.51 188.775 327.51 188.775 327.51 188.775C327.51 188.775 327.51 188.775 327.51 188.775C327.51 188.776 327.51 188.777 327.509 188.778C327.508 188.78 327.506 188.784 327.504 188.789C327.498 188.8 327.491 188.817 327.48 188.839C327.459 188.883 327.427 188.949 327.386 189.034C327.303 189.205 327.183 189.45 327.034 189.745C326.734 190.337 326.324 191.118 325.873 191.892C325.416 192.679 324.949 193.405 324.538 193.914C324.33 194.171 324.18 194.318 324.095 194.386C323.963 194.491 324.137 194.295 324.542 194.295V197.705Z" fill="#1D2D35"/>
<g filter="url(#filter5_d)">
<rect x="470" y="260" width="165" height="98" rx="12" fill="white"/>
</g>
<path fill-rule="evenodd" clip-rule="evenodd" d="M523.214 296.687H509.333C508.139 296.687 507.171 297.654 507.169 298.848V312.708C507.167 313.284 507.394 313.837 507.8 314.244C508.206 314.652 508.758 314.881 509.333 314.881H523.214C523.789 314.88 524.34 314.651 524.745 314.243C525.151 313.836 525.377 313.283 525.375 312.708V298.848C525.373 297.655 524.407 296.689 523.214 296.687ZM515.021 309.792C515.02 309.984 514.943 310.168 514.806 310.303C514.669 310.438 514.484 310.514 514.292 310.512H511.258C510.862 310.51 510.541 310.188 510.541 309.792V300.765C510.541 300.368 510.862 300.046 511.258 300.044H514.292C514.689 300.046 515.011 300.367 515.012 300.765L515.021 309.792ZM522.021 305.647C522.021 305.84 521.944 306.024 521.807 306.16C521.67 306.295 521.484 306.37 521.292 306.368H518.258C517.861 306.366 517.54 306.044 517.538 305.647V300.765C517.54 300.367 517.861 300.046 518.258 300.044H521.292C521.688 300.046 522.009 300.368 522.009 300.765L522.021 305.647Z" fill="url(#paint2_linear)"/>
<path d="M544.893 298.02V301.537H540.725V314.881H536.706V301.537H532.538V298.02H544.893Z" fill="#293856"/>
<path d="M550.009 314.881H546.293V301.756H550.009V304.27C550.715 302.5 551.844 301.447 553.853 301.575V305.463C551.228 305.259 550.009 305.901 550.009 308.004V314.881Z" fill="#293856"/>
<path d="M574.153 314.983C571.718 314.983 570.187 313.817 570.187 311.057V296.687H573.929V310.544C573.929 311.34 574.454 311.623 575.096 311.623C575.281 311.627 575.466 311.618 575.65 311.597V314.832C575.16 314.951 574.657 315.002 574.153 314.983Z" fill="#293856"/>
<path d="M581.958 314.983C579.523 314.983 577.989 313.817 577.989 311.057V296.687H581.731V310.544C581.731 311.34 582.259 311.623 582.912 311.623C583.096 311.627 583.28 311.618 583.463 311.597V314.832C582.971 314.952 582.465 315.003 581.958 314.983Z" fill="#293856"/>
<path d="M585.257 308.313C585.257 304.259 587.59 301.485 591.61 301.485C595.629 301.485 597.912 304.25 597.912 308.313C597.912 312.376 595.602 315.19 591.61 315.19C587.617 315.19 585.257 312.341 585.257 308.313ZM588.9 308.313C588.9 310.287 589.728 311.854 591.61 311.854C593.491 311.854 594.272 310.287 594.272 308.313C594.272 306.338 593.47 304.813 591.61 304.813C589.749 304.813 588.9 306.335 588.9 308.313Z" fill="#293856"/>
<path d="M558.87 309.5C559.91 309.614 560.956 309.676 562.003 309.684C564.849 309.684 567.253 308.92 567.253 306.163C567.253 303.489 564.782 301.479 561.81 301.479C557.808 301.479 555.245 304.381 555.245 308.435C555.245 312.644 557.455 315.144 562.452 315.144C563.934 315.156 565.405 314.893 566.792 314.368V311.224C565.508 311.635 564.065 312.043 562.583 312.043C560.594 312.043 559.208 311.39 558.87 309.5ZM561.734 304.343C562.787 304.343 563.633 305.058 563.633 306.035C563.633 307.292 562.306 307.686 560.778 307.686C560.127 307.683 559.478 307.631 558.835 307.531C558.884 306.918 559.059 306.322 559.351 305.781C559.828 304.908 560.739 304.36 561.734 304.349V304.343Z" fill="#293856"/>
<g filter="url(#filter6_d)">
<rect x="290" y="260" width="165" height="98" rx="12" fill="white"/>
</g>
<path d="M320.98 318.597C320.113 318.596 319.262 318.363 318.515 317.922C317.769 317.481 317.154 316.848 316.734 316.089C316.314 315.33 316.105 314.473 316.129 313.606C316.152 312.74 316.407 311.895 316.866 311.16L325.611 297.195C326.295 296.103 327.385 295.327 328.641 295.038C329.263 294.895 329.907 294.876 330.536 294.982C331.165 295.088 331.768 295.317 332.309 295.656C332.849 295.994 333.318 296.436 333.688 296.956C334.058 297.476 334.322 298.064 334.465 298.686C334.608 299.308 334.627 299.952 334.521 300.581C334.415 301.21 334.187 301.812 333.848 302.353L325.101 316.318C324.664 317.016 324.057 317.592 323.336 317.991C322.615 318.39 321.804 318.598 320.98 318.597Z" fill="#FF3D57"/>
<path d="M336.049 318.597C335.181 318.597 334.329 318.365 333.582 317.925C332.834 317.484 332.218 316.852 331.797 316.093C331.377 315.334 331.167 314.476 331.19 313.608C331.213 312.741 331.467 311.895 331.928 311.16L340.678 297.195C341.002 296.625 341.439 296.128 341.961 295.731C342.482 295.335 343.079 295.048 343.715 294.888C344.35 294.729 345.011 294.699 345.659 294.801C346.306 294.904 346.926 295.136 347.481 295.484C348.036 295.832 348.515 296.289 348.889 296.827C349.263 297.365 349.524 297.974 349.657 298.615C349.79 299.257 349.792 299.919 349.662 300.561C349.532 301.204 349.274 301.813 348.903 302.353L340.169 316.318C339.731 317.016 339.124 317.592 338.403 317.991C337.682 318.39 336.871 318.598 336.047 318.597H336.049Z" fill="#FFCB00"/>
<path d="M351.115 318.595C353.803 318.595 355.982 316.471 355.982 313.85C355.982 311.23 353.803 309.106 351.115 309.106C348.427 309.106 346.248 311.23 346.248 313.85C346.248 316.471 348.427 318.595 351.115 318.595Z" fill="#00D647"/>
<path fill-rule="evenodd" clip-rule="evenodd" d="M426.127 302.467H423.306L421.33 307.531L419.367 302.467H416.541L419.971 310.452L417.839 315.732H420.64L426.127 302.467ZM409.189 306.908C409.189 308.183 410.313 309.024 411.428 309.024C412.515 309.024 413.58 308.243 413.58 306.908C413.58 305.573 412.514 304.792 411.428 304.792C410.322 304.792 409.189 305.631 409.189 306.908ZM413.571 311.368V310.358C412.999 311.215 411.665 311.54 410.981 311.54C410.377 311.54 409.779 311.419 409.223 311.185C408.666 310.951 408.162 310.609 407.74 310.177C407.317 309.746 406.985 309.235 406.763 308.674C406.54 308.112 406.432 307.512 406.445 306.909C406.432 306.305 406.54 305.705 406.763 305.144C406.985 304.583 407.317 304.071 407.74 303.64C408.162 303.209 408.666 302.866 409.223 302.632C409.779 302.398 410.377 302.278 410.981 302.277C411.552 302.277 412.886 302.467 413.571 303.46V302.471H416.2V311.37L413.571 311.368ZM405.695 311.368H403.066V310.262C402.627 311.082 401.56 311.558 400.454 311.558C398.166 311.558 396.146 309.746 396.146 306.944C396.146 304.088 398.167 302.275 400.454 302.275C401.559 302.275 402.627 302.732 403.066 303.55V297.625H405.695V311.368ZM403.007 306.89C403.007 305.556 402.035 304.774 400.949 304.774C399.824 304.774 398.89 305.612 398.89 306.89C398.89 308.209 399.825 309.042 400.949 309.042C402.054 309.042 403.007 308.166 403.007 306.89ZM389.643 306.66C389.643 305.297 390.348 304.849 391.282 304.849C392.178 304.849 392.826 305.44 392.826 306.621V311.368H395.474V306.051C395.474 303.516 394.216 302.277 392.215 302.277C391.167 302.277 390.118 302.869 389.642 303.763V302.468H386.994V311.367H389.642L389.643 306.66ZM381.615 311.52C379.098 311.52 377.001 309.691 377.001 306.888C377.001 304.086 379.097 302.275 381.615 302.275C384.132 302.275 386.246 304.086 386.246 306.888C386.246 309.691 384.13 311.52 381.615 311.52ZM381.615 308.929C382.72 308.929 383.635 308.129 383.635 306.89C383.635 305.69 382.72 304.87 381.615 304.87C381.349 304.865 381.085 304.915 380.839 305.015C380.593 305.115 380.369 305.264 380.182 305.453C379.995 305.642 379.848 305.866 379.75 306.113C379.653 306.36 379.606 306.625 379.612 306.89C379.612 308.127 380.528 308.929 381.615 308.929ZM372.247 304.849C373.028 304.849 373.714 305.459 373.714 306.621V311.368H376.343V306.304C376.343 303.616 375.025 302.263 372.913 302.263C372.285 302.263 371.102 302.453 370.245 303.845C369.748 302.816 368.797 302.282 367.389 302.282C366.901 302.279 366.423 302.415 366.011 302.676C365.599 302.936 365.271 303.308 365.064 303.75V302.458H362.42V311.356H365.068V306.659C365.068 305.296 365.812 304.848 366.612 304.848C367.374 304.848 368.06 305.439 368.079 306.562V311.365H370.728V306.659C370.729 305.364 371.414 304.848 372.247 304.848V304.849Z" fill="#333333"/>
<defs>
<filter id="filter0_ddd" x="0" y="111" width="198" height="198" filterUnits="userSpaceOnUse" color-interpolation-filters="sRGB">
<feFlood flood-opacity="0" result="BackgroundImageFix"/>
<feColorMatrix in="SourceAlpha" type="matrix" values="0 0 0 0 0 0 0 0 0 0 0 0 0 0 0 0 0 0 127 0" result="hardAlpha"/>
<feOffset/>
<feGaussianBlur stdDeviation="0.5"/>
<feColorMatrix type="matrix" values="0 0 0 0 0 0 0 0 0 0 0 0 0 0 0 0 0 0 0.04 0"/>
<feBlend mode="normal" in2="BackgroundImageFix" result="effect1_dropShadow"/>
<feColorMatrix in="SourceAlpha" type="matrix" values="0 0 0 0 0 0 0 0 0 0 0 0 0 0 0 0 0 0 127 0" result="hardAlpha"/>
<feOffset dy="2"/>
<feGaussianBlur stdDeviation="3"/>
<feColorMatrix type="matrix" values="0 0 0 0 0 0 0 0 0 0 0 0 0 0 0 0 0 0 0.04 0"/>
<feBlend mode="normal" in2="effect1_dropShadow" result="effect2_dropShadow"/>
<feColorMatrix in="SourceAlpha" type="matrix" values="0 0 0 0 0 0 0 0 0 0 0 0 0 0 0 0 0 0 127 0" result="hardAlpha"/>
<feOffset dy="16"/>
<feGaussianBlur stdDeviation="12"/>
<feColorMatrix type="matrix" values="0 0 0 0 0 0 0 0 0 0 0 0 0 0 0 0 0 0 0.06 0"/>
<feBlend mode="normal" in2="effect2_dropShadow" result="effect3_dropShadow"/>
<feBlend mode="normal" in="SourceGraphic" in2="effect3_dropShadow" result="shape"/>
</filter>
<filter id="filter1_ddd" x="266" y="26" width="213" height="146" filterUnits="userSpaceOnUse" color-interpolation-filters="sRGB">
<feFlood flood-opacity="0" result="BackgroundImageFix"/>
<feColorMatrix in="SourceAlpha" type="matrix" values="0 0 0 0 0 0 0 0 0 0 0 0 0 0 0 0 0 0 127 0" result="hardAlpha"/>
<feOffset/>
<feGaussianBlur stdDeviation="0.5"/>
<feColorMatrix type="matrix" values="0 0 0 0 0 0 0 0 0 0 0 0 0 0 0 0 0 0 0.04 0"/>
<feBlend mode="normal" in2="BackgroundImageFix" result="effect1_dropShadow"/>
<feColorMatrix in="SourceAlpha" type="matrix" values="0 0 0 0 0 0 0 0 0 0 0 0 0 0 0 0 0 0 127 0" result="hardAlpha"/>
<feOffset dy="2"/>
<feGaussianBlur stdDeviation="3"/>
<feColorMatrix type="matrix" values="0 0 0 0 0 0 0 0 0 0 0 0 0 0 0 0 0 0 0.04 0"/>
<feBlend mode="normal" in2="effect1_dropShadow" result="effect2_dropShadow"/>
<feColorMatrix in="SourceAlpha" type="matrix" values="0 0 0 0 0 0 0 0 0 0 0 0 0 0 0 0 0 0 127 0" result="hardAlpha"/>
<feOffset dy="16"/>
<feGaussianBlur stdDeviation="12"/>
<feColorMatrix type="matrix" values="0 0 0 0 0 0 0 0 0 0 0 0 0 0 0 0 0 0 0.06 0"/>
<feBlend mode="normal" in2="effect2_dropShadow" result="effect3_dropShadow"/>
<feBlend mode="normal" in="SourceGraphic" in2="effect3_dropShadow" result="shape"/>
</filter>
<filter id="filter2_d" x="418" y="0" width="269" height="202" filterUnits="userSpaceOnUse" color-interpolation-filters="sRGB">
<feFlood flood-opacity="0" result="BackgroundImageFix"/>
<feColorMatrix in="SourceAlpha" type="matrix" values="0 0 0 0 0 0 0 0 0 0 0 0 0 0 0 0 0 0 127 0" result="hardAlpha"/>
<feOffset dy="18"/>
<feGaussianBlur stdDeviation="26"/>
<feComposite in2="hardAlpha" operator="out"/>
<feColorMatrix type="matrix" values="0 0 0 0 0 0 0 0 0 0 0 0 0 0 0 0 0 0 0.06 0"/>
<feBlend mode="normal" in2="BackgroundImageFix" result="effect1_dropShadow"/>
<feBlend mode="normal" in="SourceGraphic" in2="effect1_dropShadow" result="shape"/>
</filter>
<filter id="filter3_d" x="418" y="113" width="269" height="202" filterUnits="userSpaceOnUse" color-interpolation-filters="sRGB">
<feFlood flood-opacity="0" result="BackgroundImageFix"/>
<feColorMatrix in="SourceAlpha" type="matrix" values="0 0 0 0 0 0 0 0 0 0 0 0 0 0 0 0 0 0 127 0" result="hardAlpha"/>
<feOffset dy="18"/>
<feGaussianBlur stdDeviation="26"/>
<feComposite in2="hardAlpha" operator="out"/>
<feColorMatrix type="matrix" values="0 0 0 0 0 0 0 0 0 0 0 0 0 0 0 0 0 0 0.06 0"/>
<feBlend mode="normal" in2="BackgroundImageFix" result="effect1_dropShadow"/>
<feBlend mode="normal" in="SourceGraphic" in2="effect1_dropShadow" result="shape"/>
</filter>
<filter id="filter4_d" x="238" y="113" width="269" height="202" filterUnits="userSpaceOnUse" color-interpolation-filters="sRGB">
<feFlood flood-opacity="0" result="BackgroundImageFix"/>
<feColorMatrix in="SourceAlpha" type="matrix" values="0 0 0 0 0 0 0 0 0 0 0 0 0 0 0 0 0 0 127 0" result="hardAlpha"/>
<feOffset dy="18"/>
<feGaussianBlur stdDeviation="26"/>
<feComposite in2="hardAlpha" operator="out"/>
<feColorMatrix type="matrix" values="0 0 0 0 0 0 0 0 0 0 0 0 0 0 0 0 0 0 0.06 0"/>
<feBlend mode="normal" in2="BackgroundImageFix" result="effect1_dropShadow"/>
<feBlend mode="normal" in="SourceGraphic" in2="effect1_dropShadow" result="shape"/>
</filter>
<filter id="filter5_d" x="418" y="226" width="269" height="202" filterUnits="userSpaceOnUse" color-interpolation-filters="sRGB">
<feFlood flood-opacity="0" result="BackgroundImageFix"/>
<feColorMatrix in="SourceAlpha" type="matrix" values="0 0 0 0 0 0 0 0 0 0 0 0 0 0 0 0 0 0 127 0" result="hardAlpha"/>
<feOffset dy="18"/>
<feGaussianBlur stdDeviation="26"/>
<feComposite in2="hardAlpha" operator="out"/>
<feColorMatrix type="matrix" values="0 0 0 0 0 0 0 0 0 0 0 0 0 0 0 0 0 0 0.06 0"/>
<feBlend mode="normal" in2="BackgroundImageFix" result="effect1_dropShadow"/>
<feBlend mode="normal" in="SourceGraphic" in2="effect1_dropShadow" result="shape"/>
</filter>
<filter id="filter6_d" x="238" y="226" width="269" height="202" filterUnits="userSpaceOnUse" color-interpolation-filters="sRGB">
<feFlood flood-opacity="0" result="BackgroundImageFix"/>
<feColorMatrix in="SourceAlpha" type="matrix" values="0 0 0 0 0 0 0 0 0 0 0 0 0 0 0 0 0 0 127 0" result="hardAlpha"/>
<feOffset dy="18"/>
<feGaussianBlur stdDeviation="26"/>
<feComposite in2="hardAlpha" operator="out"/>
<feColorMatrix type="matrix" values="0 0 0 0 0 0 0 0 0 0 0 0 0 0 0 0 0 0 0.06 0"/>
<feBlend mode="normal" in2="BackgroundImageFix" result="effect1_dropShadow"/>
<feBlend mode="normal" in="SourceGraphic" in2="effect1_dropShadow" result="shape"/>
</filter>
<linearGradient id="paint0_linear" x1="499.294" y1="205.982" x2="519.571" y2="205.982" gradientUnits="userSpaceOnUse">
<stop stop-color="#8930FD"/>
<stop offset="1" stop-color="#49CCF9"/>
</linearGradient>
<linearGradient id="paint1_linear" x1="499.736" y1="194.249" x2="519.164" y2="194.249" gradientUnits="userSpaceOnUse">
<stop stop-color="#FF02F0"/>
<stop offset="1" stop-color="#FFC800"/>
</linearGradient>
<linearGradient id="paint2_linear" x1="516.281" y1="314.881" x2="516.281" y2="296.687" gradientUnits="userSpaceOnUse">
<stop stop-color="#0052CC"/>
<stop offset="1" stop-color="#2684FF"/>
</linearGradient>
<clipPath id="clip0">
<rect width="100" height="19.8" fill="white" transform="translate(320.545 74.1479)"/>
</clipPath>
<clipPath id="clip1">
<rect width="105" height="25.5106" fill="white" transform="translate(499 180)"/>
</clipPath>
</defs>
</svg>
