<svg width="20" height="10" viewBox="0 0 20 10" fill="none" xmlns="http://www.w3.org/2000/svg">
<path d="M14.5834 9.58332H11.8334V7.74999H14.5834C15.3127 7.74999 16.0122 7.46026 16.5279 6.94453C17.0436 6.42881 17.3334 5.72934 17.3334 4.99999C17.3334 4.27064 17.0436 3.57117 16.5279 3.05545C16.0122 2.53972 15.3127 2.24999 14.5834 2.24999H11.8334V0.416656H14.5834C15.7989 0.416656 16.9647 0.899542 17.8243 1.75908C18.6838 2.61863 19.1667 3.78441 19.1667 4.99999C19.1667 6.21557 18.6838 7.38135 17.8243 8.2409C16.9647 9.10044 15.7989 9.58332 14.5834 9.58332ZM8.16671 9.58332H5.41671C4.20113 9.58332 3.03534 9.10044 2.1758 8.2409C1.31626 7.38135 0.833374 6.21557 0.833374 4.99999C0.833374 3.78441 1.31626 2.61863 2.1758 1.75908C3.03534 0.899542 4.20113 0.416656 5.41671 0.416656H8.16671V2.24999H5.41671C4.68736 2.24999 3.98789 2.53972 3.47216 3.05545C2.95644 3.57117 2.66671 4.27064 2.66671 4.99999C2.66671 5.72934 2.95644 6.42881 3.47216 6.94453C3.98789 7.46026 4.68736 7.74999 5.41671 7.74999H8.16671V9.58332ZM14.5834 5.91666H5.41671V4.08332H14.5834V5.91666Z" fill="#ABABAB"/>
</svg>
