<svg width="20" height="20" viewBox="0 0 20 20" fill="none" xmlns="http://www.w3.org/2000/svg">
<path d="M10 0.833344C4.94554 0.833344 0.833374 4.94551 0.833374 10C0.833374 15.0545 4.94554 19.1667 10 19.1667C11.3439 19.1667 12.7143 18.8266 14.0719 18.1547L13.2606 16.5111C12.157 17.0565 11.0597 17.3333 10 17.3333C5.95662 17.3333 2.66671 14.0434 2.66671 10C2.66671 5.95659 5.95662 2.66668 10 2.66668C14.0435 2.66668 17.3334 5.95659 17.3334 10V10.9167C17.3334 11.551 17.0465 12.75 15.9584 12.75C14.6787 12.75 14.5889 11.0826 14.5834 10.9167V6.33334H12.75V6.35626C11.961 5.7503 10.9949 5.42019 10 5.41668C7.47279 5.41668 5.41671 7.47276 5.41671 10C5.41671 12.5273 7.47279 14.5833 10 14.5833C11.3292 14.5833 12.519 14.0049 13.3569 13.0974C13.8372 13.9133 14.6475 14.5833 15.9584 14.5833C18.042 14.5833 19.1667 12.6941 19.1667 10.9167V10C19.1667 4.94551 15.0545 0.833344 10 0.833344ZM10 12.75C8.48387 12.75 7.25004 11.5162 7.25004 10C7.25004 8.48384 8.48387 7.25001 10 7.25001C11.5162 7.25001 12.75 8.48384 12.75 10C12.75 11.5162 11.5162 12.75 10 12.75Z" fill="#ABABAB"/>
</svg>
